<svg width="19" height="21" viewBox="0 0 19 21" fill="none" xmlns="http://www.w3.org/2000/svg">
<path opacity="0.5" d="M5.72222 5.41226L5.72222 3.83363C5.72222 2.73355 5.72222 2.1835 6.05223 1.84175C6.38223 1.5 6.91336 1.5 7.97563 1.5L11.0244 1.5C12.0866 1.5 12.6178 1.5 12.9478 1.84175C13.2778 2.1835 13.2778 2.73355 13.2778 3.83363V5.41226" stroke="#DE4F4F" stroke-width="2"/>
<path opacity="0.5" d="M11.3889 10.2034V14.9256" stroke="#DE4F4F" stroke-width="2" stroke-linecap="round"/>
<path opacity="0.5" d="M7.61111 10.2034V14.9256" stroke="#DE4F4F" stroke-width="2" stroke-linecap="round"/>
<path d="M3.7796 14.2662L2.83788 5.73972L16.1604 5.73972L15.2187 14.2662C15.0888 15.4418 14.9977 16.2583 14.8707 16.8885C14.7467 17.5038 14.604 17.8527 14.4199 18.1146C14.157 18.4883 13.8123 18.7971 13.412 19.0173C13.1315 19.1716 12.769 19.2751 12.1438 19.3308C11.5035 19.3878 10.6819 19.3888 9.49913 19.3888C8.31639 19.3888 7.49479 19.3878 6.85447 19.3308C6.22925 19.2751 5.86679 19.1716 5.58629 19.0173C5.18596 18.7971 4.84123 18.4883 4.57839 18.1146C4.39422 17.8527 4.25155 17.5038 4.12755 16.8885C4.00056 16.2583 3.90945 15.4418 3.7796 14.2662Z" stroke="#DE4F4F" stroke-width="2"/>
<path d="M1 5.39294H18" stroke="#DE4F4F" stroke-width="2" stroke-linecap="round"/>
</svg>
